<?xml version="1.0" encoding="UTF-8" standalone="no"?>
<svg
   xmlns:dc="http://purl.org/dc/elements/1.1/"
   xmlns:cc="http://creativecommons.org/ns#"
   xmlns:rdf="http://www.w3.org/1999/02/22-rdf-syntax-ns#"
   xmlns:svg="http://www.w3.org/2000/svg"
   xmlns="http://www.w3.org/2000/svg"
   viewBox="0 0 266.66666 266.66666"
   height="266.66666"
   width="266.66666"
   xml:space="preserve"
   id="svg2"
   version="1.1"><metadata
     id="metadata8"><rdf:RDF><cc:Work
         rdf:about=""><dc:format>image/svg+xml</dc:format><dc:type
           rdf:resource="http://purl.org/dc/dcmitype/StillImage" /></cc:Work></rdf:RDF></metadata><defs
     id="defs6" /><g
     transform="matrix(1.3333333,0,0,-1.3333333,0,266.66667)"
     id="g10"><g
       transform="scale(0.1)"
       id="g12"><path
         id="path14"
         style="fill:#b1d43b;fill-opacity:1;fill-rule:nonzero;stroke:none"
         d="m 975.918,778.699 v 52.481 c -34.082,1.09 -68.176,10.832 -87.656,23.808 l 14.609,50.871 c 21.106,-12.449 51.406,-23.808 84.414,-23.808 34.085,0 57.355,16.769 57.355,42.738 0,24.352 -18.94,40.043 -58.976,54.652 -56.816,20.559 -93.613,46.539 -93.613,96.849 0,46.53 32.469,82.25 87.121,91.99 v 53.02 h 44.368 v -50.32 c 34.09,-1.08 57.35,-9.19 74.66,-17.85 l -14.61,-49.78 c -12.98,5.95 -36.79,18.4 -73.58,18.4 -37.881,0 -51.405,-19.48 -51.405,-37.88 0,-22.18 19.481,-34.63 65.465,-53.03 60.61,-22.73 87.66,-51.942 87.66,-100.102 0,-45.976 -31.93,-86.566 -91.44,-96.308 v -55.731 h -44.372" /><path
         id="path16"
         style="fill:#b1d43b;fill-opacity:1;fill-rule:nonzero;stroke:none"
         d="m 1290.18,1108.84 v 105.39 h -70.66 l 136.64,166.93 136.63,-166.93 h -70.65 v -105.39 h -131.96" /><path
         id="path18"
         style="fill:#223647;fill-opacity:1;fill-rule:nonzero;stroke:none"
         d="m 665.82,931.16 c -4.57,22.238 -6.98,45.27 -6.98,68.84 0,188.11 153.047,341.16 341.16,341.16 79.8,0 153.23,-27.62 211.41,-73.7 l 25.43,31.07 c -65.05,51.68 -147.31,82.63 -236.84,82.63 -210.508,0 -381.16,-170.65 -381.16,-381.16 0,-23.52 2.246,-46.5 6.316,-68.84 h 40.664" /><path
         id="path20"
         style="fill:#223647;fill-opacity:1;fill-rule:nonzero;stroke:none"
         d="m 1334.17,1068.84 c 4.58,-22.24 6.99,-45.26 6.99,-68.84 0,-188.121 -153.04,-341.16 -341.16,-341.16 -79.805,0 -153.23,27.621 -211.406,73.699 l -25.43,-31.07 C 828.215,649.789 910.469,618.84 1000,618.84 c 210.51,0 381.16,170.648 381.16,381.16 0,23.52 -2.24,46.5 -6.33,68.84 h -40.66" /><path
         id="path22"
         style="fill:#b1d43b;fill-opacity:1;fill-rule:nonzero;stroke:none"
         d="M 577.859,891.16 V 785.77 H 507.207 L 643.84,618.84 780.469,785.77 H 709.813 V 891.16 H 577.859" /></g></g></svg>